<svg width="240" height="240" xmlns="http://www.w3.org/2000/svg">
 <g>
  <title>Layer 1</title>
  <rect fill="#000000" stroke="null" stroke-width="0" x="-72.26933" y="-75.97476" width="434.00224" height="415.00215" id="svg_10"/>
  <path transform="rotate(0.5 218.607 -7.72561)" fill="#af469a" stroke-width="0" opacity="NaN" d="m177.23171,45.77439l23.96723,-106.5l58.78277,-0.5l-47.68216,105.25l-35.06784,1.75z" id="svg_5" stroke="null"/>
  <text transform="rotate(-10 177.882 184.924)" fill="#ff0000" stroke="null" stroke-width="0" x="167.15671" y="198.92439" id="svg_2" font-size="39" font-family="'Cabin'" text-anchor="start" xml:space="preserve" opacity="0.83" filter="url(#svg_2_blur)">o</text>
  <path id="svg_41" d="m188.60671,86.72439c0,0 2.25,2.125 2.25,2.125c0,0 21.25,-45.5 21.25,-45.5c0,0 -9.75,0.75 -9.75,0.75c0,0 -13.75,42.625 -13.75,42.625z" opacity="NaN" stroke-width="0" stroke="null" fill="#d66fd6"/>
  <path transform="rotate(-1 187.165 66.8694)" stroke="null" id="svg_4" d="m177.30657,44.83447c0,0 -6.01344,22.16023 -6.2226,21.91054c0.20916,0.24969 17.72657,22.72203 17.72657,22.72203c0,0 14.64141,-44.94469 14.43225,-45.19438c0.20916,0.24969 -25.93622,0.5618 -25.93622,0.5618l0,0.00001z" opacity="NaN" stroke-width="0" fill="#d66fd6"/>
  <path stroke="null" id="svg_40" d="m180.98171,106.183c0,0 1.875,0.76345 1.875,0.66166c0,0.10179 8.125,-18.22103 8.125,-18.22103c0,0 -3,-3.0538 -3,-3.0538c0,0 -7,20.61318 -7,20.61318l0,-0.00001z" opacity="NaN" stroke-width="0" fill="#b16ed3"/>
  <path stroke="null" id="svg_7" d="m171.40223,66.27473c0,0 -9.42008,33.80782 -9.42008,33.80782c0,0 19.09137,6.81722 19.09137,6.81722c0,0 7.03366,-21.14728 7.03366,-21.14728c0,0 -16.70495,-19.47776 -16.70495,-19.47776z" opacity="NaN" stroke-width="0" fill="#b16ed3"/>
  <path stroke="null" id="svg_8" d="m162.07604,99.77477c0,0 18.65613,6.12501 18.65613,6.12501c0,0 -11.78282,31.60003 -11.78282,31.60003c0,0 -15.34221,-10.50001 -15.34241,-10.60021c0.00019,0.1002 8.4691,-27.12483 8.4691,-27.12483z" opacity="NaN" stroke-width="0" fill="#9b6ed1"/>
  <path id="svg_9" d="m153.73171,126.62439c0,0 -8,20 -8,20c0,0 10,16.625 10,16.625c0,0 13.5,-26.375 13.5,-26.475c0,0.1 -15.5,-10.15 -15.5,-10.15z" opacity="NaN" stroke-width="0" fill="#786dce"/>
  <path id="svg_11" d="m145.73171,146.62439c0,0 -14.125,17.5 -14.125,17.4c0,0.1 -0.625,22.225 -0.625,22.125c0,0.1 24.625,-23.15 24.625,-23.25c0,0.1 -8.875,-15.025 -8.875,-15.125c0,0.1 -1,-1.15 -1,-1.15z" opacity="NaN" stroke-width="0" fill="#6c8acc"/>
  <path id="svg_12" d="m131.73171,163.97439c0,0 -18.875,6.5 -18.875,6.5c0,0 -15.125,19.875 -15.125,19.875c0,0 33.5,-4.5 33.5,-4.5c0,0 0.5,-21.875 0.5,-21.875z" opacity="NaN" stroke-width="0" fill="#7aadd3"/>
  <path id="svg_14" d="m112.85671,170.59939c0,0 -22,-7.875 -22,-7.95c-7,1.575 -25.875,6.45 -25.875,6.45c0,0 32.875,21.125 32.875,21.125c0,0 9.625,-12.125 9.625,-12.2c0,0.075 5.375,-7.425 5.375,-7.425z" opacity="NaN" stroke-width="0" fill="#7bc2ce"/>
  <path id="svg_15" d="m65.10671,169.22439c0,0 -11.125,-34.375 -11.125,-34.45c0,0.075 27,4.825 27,4.825c0,0 9.875,23.125 9.875,23.125c0,0 -25.75,6.5 -25.75,6.5z" opacity="NaN" stroke-width="0" fill="#a0dbcc"/>
  <path id="svg_16" d="m54.10671,134.92439c0,0 2.375,-33.625 2.375,-33.65c0,0.025 23.75,3.775 23.75,3.775c0,0 0.75,34.75 0.75,34.75c0,0 -26.875,-4.875 -26.875,-4.875z" opacity="NaN" stroke-width="0" fill="#c7edd8"/>
  <path id="svg_17" d="m56.48171,101.39939c0,0 12.5,-29.125 12.5,-29.125c0,0 26.75,3.875 26.75,3.875c0,0 -15.75,29.25 -15.75,29.25c0,0 -23.5,-4 -23.5,-4z" opacity="NaN" stroke-width="0" fill="#e2f9e0"/>
  <path id="svg_18" d="m68.85671,72.44939c0,0 26.5,3.875 26.5,3.825c0,0.05 24,-7.95 24,-8c0,0.05 -17.75,-17.95 -17.75,-18c0,0.05 -32.75,22.175 -32.75,22.175z" opacity="NaN" stroke-width="0" fill="#d6eac0"/>
  <path id="svg_19" d="m101.35671,50.29939c0,0 17.375,17.875 17.375,17.85c0,0.025 19.375,8.275 19.375,8.275c0,0 -6.5,-26.375 -6.5,-26.4c0,0.025 -30.25,0.275 -30.25,0.275z" opacity="NaN" stroke-width="0" fill="#d1dba4"/>
  <path id="svg_22" d="m152.73171,63.67439l-21.5,-13.9l6.5,26.25c0,0.025 10.125,15.9 10.125,15.9c0,0 5.625,-27.5 4.875,-28.25z" opacity="NaN" stroke-width="0" fill="#dbd87a"/>
  <path id="svg_23" d="m-1294.64329,-807.57562c0,0 12.625,21 12.625,20.9c0,0.1 -9.625,31.1 -9.625,31.1c0,0 -8,-24.5 -8,-24.5c0,0 5,-27.5 5,-27.5z" opacity="NaN" stroke-width="0" fill="#dbd87a"/>
  <path id="svg_24" d="m1592.23171,1503.54939c0,0 -4.75,27.625 -4.75,27.6c0,0.025 9,21.275 9,21.25c0,0.025 7.375,-24.475 7.375,-24.5c0,0.025 -11.625,-24.35 -11.625,-24.35z" opacity="NaN" stroke-width="0" fill="#dbd87a"/>
  <path id="svg_25" d="m152.73171,63.92439c0,0 -5,27.5 -5,27.475c0,0.025 8.125,20.775 8.125,20.75c0,0.025 6.75,-19.475 6.75,-19.5c0,0.025 -9.875,-28.725 -9.875,-28.725z" opacity="NaN" stroke-width="0" fill="#e5c95b"/>
  <path id="svg_28" d="m1615.23171,1565.72439c-62.375,44.875 -4.5,12.125 -4.5,12.125c0,0 4.125,10.25 4.125,10.175c0,0.075 11.375,-6.925 11.375,-7c0,0.075 -11.375,-15.775 -11,-15.3z" opacity="NaN" stroke-width="0" fill="#e5c95b"/>
  <path id="svg_34" d="m-1455.14329,-1344.07556c0,0 -6.375,7 -6.375,7c0,0 5.25,17.25 5.25,17.15c0,0.1 2.875,-10.775 2.875,-10.775c0,0 -1.75,-13.375 -1.75,-13.375z" opacity="NaN" stroke-width="0" fill="#db7b43"/>
  <path stroke="null" id="svg_37" d="m151.85671,61.84939c0,0 11.5,28.00608 11.5,27.92411c0,0.08197 -0.84146,2.95088 -0.84146,2.95088c0,0 -10.65854,-30.875 -10.65854,-30.875l0,0.00001z" opacity="NaN" stroke-width="0" fill="#e5c95b"/>
  <path stroke="null" id="svg_39" d="m169.23171,136.79939c0,0 13.75,-30.125 13.75,-30.15c0,0.025 -3,-0.975 -3,-1c0,0.025 -10.75,31.15 -10.75,31.15z" opacity="NaN" stroke-width="0" fill="#9b6ed1"/>
  <path id="svg_42" d="m173.78171,130.49939l-6.55,15.025l4,16c0.05,0.1 6.3,-5.9 6.3,-5.9c0,0 -3.5,-22.5 -3.55,-22.6c0.05,0.1 -0.2,-1.15 -0.25,-1.25" opacity="NaN" stroke-width="0" fill="#dda344" filter="url(#svg_42_blur)"/>
  <path id="svg_43" d="m177.37338,155.49939l0.98333,13.15l-4.04902,5.625l-3.32598,-13.75l6.39167,-5.025z" opacity="NaN" stroke-width="0" fill="#db7b43" stroke="null" filter="url(#svg_43_blur)"/>
  <path id="svg_45" d="m174.00671,173.24939l4.35,-5.1l0,21.625l-4.35,-16.525z" opacity="NaN" stroke-width="0" fill="#dd5240" filter="url(#svg_45_blur)" stroke="null"/>
  <text xml:space="preserve" text-anchor="start" font-family="'Manuale'" font-size="250" id="svg_47" y="180.42439" x="171.75671" stroke-width="0" stroke="null" fill="#000000"/>
  <path fill="#9b3386" stroke-width="0" opacity="NaN" d="m189.68171,-9.82561l43.55036,8.1l28.99965,-59.5l-60.54313,-0.25l-12.00688,51.65z" id="svg_6" stroke="null"/>
  <text fill="#c7edd8" stroke-width="0" x="87.96411" y="128.83237" id="svg_13" font-size="29" font-family="'Besley'" text-anchor="start" xml:space="preserve" opacity="NaN" transform="matrix(0.935341 0 0 0.948697 10.4552 9.5123)" filter="url(#svg_13_blur)">Ori.</text>
 </g>
 <defs>
  <filter id="svg_2_blur" x="-50%" y="-50%" width="200%" height="200%">
   <feGaussianBlur in="SourceGraphic" stdDeviation="2.9"/>
  </filter>
  <filter id="svg_13_blur">
   <feGaussianBlur in="SourceGraphic" stdDeviation="0.5"/>
  </filter>
  <filter id="svg_42_blur">
   <feGaussianBlur in="SourceGraphic" stdDeviation="0.3"/>
  </filter>
  <filter id="svg_43_blur">
   <feGaussianBlur in="SourceGraphic" stdDeviation="0.2"/>
  </filter>
  <filter id="svg_45_blur">
   <feGaussianBlur in="SourceGraphic" stdDeviation="0.3"/>
  </filter>
 </defs>
</svg>